# xmcd
# 
# Track frame offsets:
#     150
#     14814
#     37401
#     60407
#     77621
#     98906
# 
# Disc length: 1691
# 
# Revision: 0
# Processed by: cddbd v1.5.2PL0 Copyright (c) Steve Scherf et al.
# Submitted via: fre:ac v1.0.27
# 
DISCID=4a069906
DTITLE=Shogo Hamada - Radio SHow Vol1
DYEAR=0
DGENRE=
TTITLE0=Soulful Strut
TTITLE1=My Cherie Amour
TTITLE2=Mercy,Mercy,Mercy
TTITLE3=You've Really Got a Hold on Me
TTITLE4=Will You Still Love Me Tomorrow
TTITLE5=What's Going on
EXTD=
EXTT0=
EXTT1=
EXTT2=
EXTT3=
EXTT4=
EXTT5=
PLAYORDER=
